<svg width="160" height="160" viewBox="0 0 160 160" fill="none" xmlns="http://www.w3.org/2000/svg">
<path d="M160 80.402C160 36.002 122.797 0 80.195 0C36 0 0 36.002 0 80.402C0 124.199 36 160 80.195 160C124.401 160 160 124.6 160 80.402ZM148.999 80.402C148.999 117.998 118 149 80.195 149C42.199 149 11 118.201 11 80.402C11 42.201 42.199 10.798 80.195 10.798C118 10.799 148.999 42.4 148.999 80.402ZM137.797 91.002C137.797 82.799 133.195 78 127.4 74.799L123 72.403C120.401 71.001 118.194 68.799 118.194 66.003C118.194 62.8 120.8 60.601 124.599 60.601C127.2 60.601 129.598 61.601 131.398 62.404C134.193 63.8 136 62.004 136.801 59C137.797 55.602 136.397 54.404 133.998 53.203C131.597 52.004 128.195 51.203 124.8 51.203C115.399 51.203 107.597 57.402 107.597 67.404C107.597 75.201 111.597 79.603 117.999 83.203L122.596 85.801C125.4 87.403 127.2 89.602 127.2 92.602C127.2 96.405 123.597 98.202 119.999 98.202C117.198 98.202 113.8 97.003 112.002 96.202C108.998 94.8 107.4 96.602 106.398 99.802C105.4 103.202 107.003 104.603 109.598 105.802C112.003 107 116.196 108 120 108C129.8 108 137.797 101.402 137.797 91.002ZM102.797 88.998V55.799C102.797 52.998 100.001 51.598 97.402 51.598C94.597 51.598 92.005 52.998 92.005 55.799V87.6C92.005 93.998 90 98.2 84.802 98.2C79.8 98.2 77.4 94.2 77.4 87.6V55.799C77.4 52.998 74.4 51.598 71.801 51.598C68.803 51.598 66.197 52.998 66.197 55.799V88.797C66.197 102 72.797 108 84.803 108C95.598 108 102.797 101.799 102.797 88.998ZM61 91.402C61 82.201 54.599 78.797 51.196 78.201V78C55.196 76.002 60 72.199 60 65.402C60 56.201 52.004 51.798 44.195 51.798H29.197C26.4 51.798 24.801 53.997 24.801 56.402V103.199C24.801 106.002 27.601 107.402 30.197 107.402H44.402C53 107.402 61 102.797 61 91.402ZM48.802 68C48.802 73.201 44.402 74.998 39.8 74.998H35.596V61H39.8C44.599 61 48.802 62.6 48.802 68ZM50.401 90.199C50.401 95.599 47.4 98.199 41 98.199H36.195V82.6H41C45 82.6 50.401 84 50.401 90.199Z" fill="white"/>
</svg>
