<?xml version="1.0" encoding="utf-8"?>
<!-- Generator: Adobe Illustrator 21.1.0, SVG Export Plug-In . SVG Version: 6.00 Build 0)  -->
<svg version="1.1" id="metro" xmlns="http://www.w3.org/2000/svg" xmlns:xlink="http://www.w3.org/1999/xlink" x="0px" y="0px"
	 viewBox="0 0 59 59" style="enable-background:new 0 0 59 59;" xml:space="preserve">
<path fill="#0088ce" d="M54.8,42.5c-3.1,6-8.3,10.8-14.5,13.3c-3.9,1.6-8.3,2.4-12.5,2.2c-5-0.2-10-1.8-14.3-4.5c-4.4-2.8-8-6.7-10.3-11.3
	c-2.4-4.7-3.5-10.1-3-15.4C0.6,21,2.8,15.4,6.4,10.9c3.8-4.7,9.1-8.3,14.9-9.9c2-0.6,4.1-0.9,6.3-1C33-0.3,38.4,1,43.1,3.7
	c4.2,2.4,7.8,5.9,10.4,10c2.8,4.3,4.4,9.4,4.5,14.6C58.2,33.2,57.1,38.2,54.8,42.5z M51.8,18.8c-2.1-4.7-5.6-8.7-10-11.3
	c-4.2-2.6-9.2-3.8-14.1-3.6c-4.6,0.2-9,1.8-12.8,4.4c-4.5,3.1-8,7.7-9.7,12.9C3.7,25.9,3.6,31.2,5,36c1.3,4.7,4.1,8.9,7.8,12.1
	c4,3.4,9,5.6,14.2,6c3.9,0.3,7.8-0.3,11.4-1.7c4.2-1.7,8-4.6,10.7-8.3c2.5-3.4,4.2-7.4,4.8-11.6C54.5,27.9,53.7,23,51.8,18.8z
	 M38.9,43c-0.3-0.5-0.2-1.1-0.2-1.7c0-6,0-12.1,0-18.1c-0.2,0.3-0.4,0.6-0.5,0.9c-2.1,4.3-4.2,8.6-6.3,12.9
	c-0.3,0.6-0.6,1.3-1.1,1.8c-0.6,0.6-1.7,0.7-2.5,0.4c-0.8-0.3-1.2-1-1.5-1.7c-2.2-4.5-4.4-8.9-6.6-13.4c-0.2-0.4-0.3-0.7-0.6-1
	c0,6,0,12,0,18c0,0.7,0.1,1.4-0.3,1.9c-0.8,1.3-2.9,1.5-4,0.4c-0.4-0.4-0.6-1-0.6-1.6c0-8.4,0-16.7,0-25.1c0-0.9,0.3-1.9,1.1-2.4
	c0.9-0.7,2.2-0.7,3.3-0.5c1.1,0.3,1.7,1.4,2.2,2.3c2.6,5.3,5.1,10.6,7.7,15.9c0,0.1,0.2,0.5,0.3,0.1c2.6-5.4,5.1-10.7,7.7-16.1
	c0.5-1,1.1-2,2.2-2.3c1.1-0.3,2.4-0.2,3.3,0.5c0.8,0.6,1.1,1.5,1.1,2.4c0,8.3,0,16.5,0,24.8c0,0.6,0,1.3-0.4,1.8
	C42,44.6,39.7,44.4,38.9,43z"/>
</svg>
