<svg width="160" height="160" viewBox="0 0 160 160" fill="none" xmlns="http://www.w3.org/2000/svg">
<g clip-path="url(#clip0)">
<path d="M160 80.405C160 36 122.802 -0.00201416 80.202 -0.00201416C36.003 -0.00201416 0 36 0 80.405C0 124.404 36.003 160 80.202 160C124.401 160 160 124.604 160 80.405ZM149 80.405C149 118.005 118.006 149.403 80.201 149.403C42.199 149.403 10.998 118.402 10.998 80.405C10.998 42.195 42.199 10.603 80.201 10.603C118.006 10.604 149 42.404 149 80.405ZM119.802 115.804V46C119.802 41.999 117.605 37.799 111.005 37.799C106.005 37.799 104.003 39.998 101.801 44.4L80.202 89.403H79.997L58.207 44.399C56.002 39.998 53.999 37.798 49 37.798C42.398 37.798 40.201 41.998 40.201 45.999V115.803C40.201 119.602 43.203 121.805 46.802 121.805C50.008 121.805 53.6 119.602 53.6 115.803V63.803H53.803L73.604 104.201C75.001 107 76.801 108.6 79.999 108.6C83.203 108.6 85.001 106.999 86.4 104.201L106.208 63.803H106.406V115.804C106.406 119.603 110.001 121.806 113.207 121.806C116.799 121.806 119.802 119.603 119.802 115.804Z" fill="white"/>
</g>
<defs>
<clipPath id="clip0">
<rect width="160" height="160" fill="white"/>
</clipPath>
</defs>
</svg>
