<?xml version="1.0" encoding="utf-8"?>
<!-- Generator: Adobe Illustrator 13.0.0, SVG Export Plug-In . SVG Version: 6.00 Build 14948)  -->
<!DOCTYPE svg PUBLIC "-//W3C//DTD SVG 1.1//EN" "http://www.w3.org/Graphics/SVG/1.1/DTD/svg11.dtd">
<svg version="1.1" id="Layer_1" xmlns="http://www.w3.org/2000/svg" xmlns:xlink="http://www.w3.org/1999/xlink" x="0px" y="0px"
	 width="400px" height="400px" viewBox="0 0 400 400" enable-background="new 0 0 400 400" xml:space="preserve">
<path fill="#14489E" d="M398.996,200.987C398.996,90.544,306.459,1,200.516,1C90.563,1,1.003,90.544,1.003,200.987
	C1.003,309.923,90.563,399,200.516,399C310.453,399,398.996,310.918,398.996,200.987 M371.635,200.987
	c0,93.532-77.119,170.638-171.119,170.638c-94.535,0-172.152-76.615-172.152-170.638c0-95.003,77.617-173.125,172.152-173.125
	C294.516,27.862,371.635,106.467,371.635,200.987z M342.791,169.148c0-26.862-19.904-39.302-39.318-39.302h-37.297
	c-6.967,0-10.961,5.488-10.961,11.452v116.89c0,6.995,6.98,10.472,13.441,10.472c7.441,0,13.428-3.477,13.428-10.472V212.93h11.438
	l22.414,50.264c1.961,3.967,5.451,5.467,9.447,5.467c7.961,0,19.398-7.457,14.928-16.428l-21.404-44.77
	C331.828,200.987,342.791,189.55,342.791,169.148z M241.787,255.723c0-5.986-3.982-12.433-10.934-12.433H193.03v-34.341h31.363
	c6.951,0,10.918-5.972,10.918-11.438c0-5.956-3.967-11.452-10.918-11.452H193.03v-31.349h34.853c6.951,0,10.934-6.951,10.934-12.425
	c0-5.964-3.982-12.439-10.934-12.439h-50.761c-6.966,0-10.939,5.488-10.939,11.452v116.414c0,6.967,6.966,10.441,13.435,10.441
	h51.237C237.805,268.154,241.787,261.203,241.787,255.723z M150.244,169.148c0-26.862-19.896-39.302-39.288-39.302H73.645
	c-6.966,0-10.932,5.488-10.932,11.452v116.89c0,6.995,6.951,10.472,13.413,10.472c7.486,0,13.427-3.477,13.427-10.472V212.93h11.459
	l22.384,50.264c1.998,3.967,5.481,5.467,9.447,5.467c7.954,0,19.406-7.457,14.92-16.428l-21.381-44.77
	C139.327,200.987,150.244,189.55,150.244,169.148z M314.939,172.142c0,16.918-15.432,20.885-24.879,20.885h-7.977v-40.291h9.461
	C303.992,152.735,314.939,158.209,314.939,172.142z M122.409,172.142c0,16.918-15.44,20.885-24.88,20.885h-7.976v-40.291h9.461
	C111.461,152.735,122.409,158.209,122.409,172.142z"/>
</svg>
