<svg width="160" height="160" viewBox="0 0 160 160" fill="none" xmlns="http://www.w3.org/2000/svg">
<g clip-path="url(#clip0)">
<path d="M148.945 80.357C148.945 118.019 117.948 148.977 80.195 148.977C42.144 148.977 10.963 118.195 10.963 80.357C10.963 42.182 42.144 10.814 80.195 10.814C117.949 10.814 148.945 42.385 148.945 80.357ZM159.971 80.357C159.971 36.003 122.778 0 80.195 0C35.956 0 -0.0289993 36.003 -0.0289993 80.357C-0.0289993 124.18 35.956 160 80.196 160C124.381 160 159.971 124.596 159.971 80.357Z" fill="white"/>
<path d="M117.433 126.129L102.682 109.774C103.023 109.544 103.346 109.315 103.587 109.07C106.332 106.88 108.866 103.489 110.718 98.236C113.305 90.9 115.148 84.335 115.65 76.253C116.339 66.292 112.235 50.809 109.517 43.594L108.569 41.034C107.983 39.421 105.754 35.974 101.775 31.855C98.371 28.319 95.095 28.051 90.104 28.051H69.845C64.855 28.051 61.579 28.319 58.17 31.855C54.205 35.966 51.961 39.42 51.375 41.034L50.434 43.598C47.708 50.808 43.595 66.291 44.293 76.258C44.803 84.322 46.627 90.869 49.217 98.236C51.082 103.489 53.623 106.88 56.364 109.07C56.615 109.311 56.934 109.544 57.277 109.768L42.518 126.129C41.322 127.454 41.322 129.624 42.518 130.946C43.713 132.271 45.661 132.271 46.849 130.946L51.946 125.294H108.005L113.088 130.946C114.295 132.271 116.235 132.271 117.434 130.946C118.627 129.624 118.627 127.454 117.433 126.129ZM52.248 70.268C51.124 67.341 54.173 48.224 56.214 45.457H103.235C105.188 47.835 109.256 67.605 107.587 70.268H52.248ZM58.072 118.506L63.506 112.471C66.152 113.077 68.589 113.092 70.369 113.092H89.576C91.354 113.092 93.794 113.077 96.434 112.471L101.881 118.506H58.072ZM57.147 96.249C57.147 93.558 59.335 91.376 62.028 91.376C64.719 91.376 66.916 93.558 66.916 96.249C66.916 98.932 64.719 101.12 62.028 101.12C59.335 101.12 57.147 98.932 57.147 96.249ZM97.548 101.006C94.854 101.006 92.663 98.813 92.663 96.128C92.663 93.441 94.854 91.264 97.548 91.264C100.246 91.264 102.429 93.442 102.429 96.128C102.43 98.813 100.247 101.006 97.548 101.006Z" fill="white"/>
</g>
<defs>
<clipPath id="clip0">
<rect width="160" height="160" fill="white"/>
</clipPath>
</defs>
</svg>
