<svg width="200" height="200" viewBox="0 0 200 200" fill="none" xmlns="http://www.w3.org/2000/svg">
<path d="M137.184 53.2066H63.307C63.307 53.2066 54.0687 53.3227 54.0687 62.3047C54.0687 62.3047 54.0687 71.5487 63.1759 71.4326H90.3928L90.5164 150.642C90.5164 150.642 90.5164 159.65 100.492 159.65C100.492 159.65 109.97 159.871 109.839 150.511V71.4289L136.944 71.545C136.944 71.545 145.931 71.545 145.931 62.3009C145.931 62.3046 145.931 53.3227 137.184 53.2066Z" fill="white"/>
<path d="M200 100.496C200 44.997 153.497 0 100.246 0C44.995 0 0 44.997 0 100.496C0 155.492 44.995 200 100.246 200C155.497 200 200 155.738 200 100.496ZM186.251 100.496C186.251 147.498 147.504 186.736 100.247 186.736C52.7548 186.736 13.7497 147.997 13.7497 100.496C13.7497 52.7558 52.7548 13.2442 100.247 13.2442C147.504 13.2442 186.251 52.9985 186.251 100.496Z" fill="white"/>
</svg>
